<?xml version="1.0" standalone="no"?>
<!DOCTYPE svg PUBLIC "-//W3C//DTD SVG 20010904//EN"
 "http://www.w3.org/TR/2001/REC-SVG-20010904/DTD/svg10.dtd">
<svg version="1.0" xmlns="http://www.w3.org/2000/svg"
 width="974.000000pt" height="296.000000pt" viewBox="0 0 974.000000 296.000000"
 preserveAspectRatio="xMidYMid meet">

<g transform="translate(0.000000,296.000000) scale(0.100000,-0.100000)"
fill="#000000" stroke="none">
<path d="M0 1480 l0 -1480 4870 0 4870 0 0 1480 0 1480 -4870 0 -4870 0 0
-1480z m1715 931 c30 -13 47 -16 65 -9 43 17 136 4 173 -22 27 -21 44 -24 107
-25 89 0 141 -22 173 -71 18 -28 28 -34 58 -34 89 0 215 -58 293 -135 35 -35
86 -124 86 -151 0 -5 20 -20 45 -32 67 -33 100 -88 102 -175 1 -65 4 -72 37
-106 43 -44 58 -82 55 -141 -4 -102 -1 -138 15 -190 22 -69 15 -164 -16 -246
-32 -83 -109 -162 -200 -205 -66 -31 -81 -34 -163 -34 -103 0 -161 18 -231 71
-24 19 -46 34 -49 34 -3 0 -11 -15 -18 -33 -22 -51 -91 -131 -142 -165 -82
-54 -164 -75 -267 -70 -79 5 -99 10 -165 43 -44 23 -89 55 -111 80 l-37 43
-38 -39 c-21 -20 -59 -45 -85 -54 -70 -25 -73 -27 -87 -69 -15 -42 -65 -100
-107 -122 -63 -33 -182 -9 -245 49 -18 16 -38 20 -96 22 -145 4 -248 93 -272
235 -6 32 -19 58 -50 92 -76 85 -88 220 -28 316 l31 50 -34 33 c-18 18 -40 47
-49 65 -35 74 -6 189 60 240 27 21 35 35 44 85 18 105 50 150 215 308 31 29
56 59 56 65 0 35 134 126 185 126 8 0 31 18 51 40 21 23 68 56 112 78 75 36
78 37 201 39 88 1 137 6 161 17 47 21 116 19 165 -3z m6065 -242 c27 -6 50
-14 50 -18 0 -4 -9 -35 -21 -69 -16 -48 -25 -62 -38 -58 -51 14 -93 16 -113 5
-32 -17 -38 -28 -38 -71 l0 -38 75 0 75 0 0 -70 0 -70 -75 0 -75 0 0 -260 0
-260 -95 0 -95 0 0 260 0 260 -45 0 -45 0 0 45 c0 44 2 46 44 67 43 21 44 21
50 86 11 109 45 160 123 187 46 17 154 19 223 4z m1307 -25 c7 -10 13 -37 13
-60 0 -56 -33 -84 -97 -84 -58 0 -93 33 -93 87 0 49 9 62 55 77 45 16 103 6
122 -20z m-2040 0 c22 -22 25 -32 20 -67 -7 -54 -35 -77 -93 -77 -62 0 -99 33
-99 90 0 56 29 80 97 80 39 0 54 -5 75 -26z m-3219 -45 c34 -13 62 -28 62 -33
0 -6 -12 -40 -26 -77 l-26 -66 -81 28 c-90 32 -114 34 -170 18 -90 -25 -146
-114 -155 -246 -9 -148 31 -257 110 -300 43 -23 172 -23 247 0 30 9 59 17 63
17 5 0 8 -35 6 -77 l-3 -78 -70 -18 c-103 -27 -260 -20 -335 15 -134 61 -210
207 -209 403 0 220 98 374 274 432 63 21 235 11 313 -18z m780 -199 c131 -57
197 -200 173 -375 -26 -187 -142 -282 -331 -273 -102 5 -168 35 -224 100 -104
121 -100 375 7 486 86 90 249 117 375 62z m983 -1 c48 -27 84 -73 99 -128 5
-20 10 -143 10 -273 l0 -238 -90 0 -90 0 0 203 c0 275 -14 317 -105 317 -64 0
-99 -21 -121 -72 -15 -36 -19 -77 -22 -245 l-4 -203 -89 0 -89 0 0 330 0 330
70 0 69 0 11 -40 c6 -22 13 -40 16 -40 3 0 24 15 46 34 50 43 95 56 179 52 47
-2 79 -10 110 -27z m921 21 l98 0 0 -49 0 -49 -49 -12 -49 -12 14 -33 c21 -52
17 -105 -13 -165 -40 -78 -105 -112 -222 -118 -94 -5 -111 -12 -111 -48 0 -29
10 -32 165 -37 77 -3 133 -10 155 -19 105 -46 137 -181 67 -287 -31 -47 -123
-96 -212 -112 -94 -18 -231 -7 -297 23 -75 35 -103 75 -103 150 0 69 22 103
87 136 l46 23 -29 29 c-43 43 -40 91 9 140 l38 38 -34 27 c-82 65 -95 196 -30
291 48 70 126 96 267 89 57 -3 148 -5 203 -5z m1906 -5 c64 -19 114 -62 138
-118 15 -35 18 -80 22 -289 l4 -248 -66 0 -67 0 -16 38 c-8 20 -17 39 -19 41
-1 2 -21 -12 -43 -31 -49 -42 -99 -58 -177 -58 -138 1 -211 82 -202 224 5 79
33 120 102 152 55 25 158 43 244 44 l52 0 0 38 c0 28 -7 45 -25 62 -32 30
-117 30 -199 0 -31 -12 -59 -20 -60 -18 -2 1 -15 29 -29 61 l-27 58 45 20 c90
40 233 50 323 24z m-1358 -325 l0 -330 -90 0 -90 0 0 330 0 330 90 0 90 0 0
-330z m2040 0 l0 -330 -90 0 -90 0 0 330 0 330 90 0 90 0 0 -330z m-4560 -765
c0 -113 -2 -135 -15 -135 -13 0 -15 22 -15 135 0 113 2 135 15 135 13 0 15
-22 15 -135z m3050 0 c0 -113 -2 -135 -15 -135 -8 0 -15 5 -15 12 0 9 -3 9
-12 0 -19 -19 -82 -15 -102 7 -26 28 -31 91 -12 129 19 37 57 50 98 34 l28
-10 0 49 c0 37 4 49 15 49 13 0 15 -22 15 -135z m-1924 114 c10 -17 -13 -36
-27 -22 -12 12 -4 33 11 33 5 0 12 -5 16 -11z m2862 -12 c2 -10 -3 -17 -12
-17 -10 0 -16 9 -16 21 0 24 23 21 28 -4z m-4940 -94 c22 -60 44 -116 48 -125
4 -13 1 -18 -10 -18 -10 0 -23 16 -32 40 -16 39 -18 40 -64 40 -46 0 -48 -1
-64 -40 -9 -23 -23 -40 -32 -40 -9 0 -14 4 -12 8 2 5 23 61 48 125 31 80 50
117 61 117 10 0 28 -35 57 -107z m3076 -11 c51 -131 51 -132 32 -132 -8 0 -21
18 -30 40 -15 39 -17 40 -66 40 -49 0 -49 0 -61 -40 -8 -28 -18 -40 -30 -40
-18 0 -18 3 2 53 12 28 32 81 46 117 30 78 31 80 48 80 8 0 32 -48 59 -118z
m186 -7 c0 -104 -2 -125 -15 -125 -13 0 -15 21 -15 125 0 104 2 125 15 125 13
0 15 -21 15 -125z m-1380 85 c0 -15 7 -20 25 -20 16 0 25 -6 25 -15 0 -9 -9
-15 -25 -15 -26 0 -26 -1 -23 -67 3 -62 5 -68 26 -71 32 -5 27 -22 -6 -22 -43
0 -52 17 -52 92 0 54 -3 68 -15 68 -19 0 -20 16 -2 27 8 4 16 16 20 26 9 23
27 22 27 -3z m2860 0 c0 -16 7 -20 31 -20 38 0 35 -24 -4 -28 -26 -3 -27 -6
-27 -61 0 -59 11 -81 42 -81 10 0 18 -4 18 -10 0 -5 -16 -10 -35 -10 -44 0
-55 20 -55 98 0 47 -4 61 -17 66 -14 6 -14 8 5 22 12 8 22 22 22 30 0 8 5 14
10 14 6 0 10 -9 10 -20z m-4460 -35 c0 -11 -11 -15 -40 -15 -45 0 -60 -18 -60
-74 0 -43 33 -71 74 -60 20 5 26 2 26 -10 0 -26 -78 -22 -107 6 -33 31 -33
109 2 143 29 29 105 36 105 10z m243 0 c-1 -5 -19 -12 -40 -15 -49 -7 -70 -43
-53 -95 12 -38 35 -49 75 -39 21 5 27 4 23 -7 -7 -20 -75 -23 -103 -5 -14 10
-27 30 -31 51 -14 76 24 128 91 123 22 -2 39 -7 38 -13z m247 -5 c11 -11 20
-33 20 -50 l0 -30 -60 0 c-53 0 -60 -2 -60 -20 0 -31 42 -52 85 -44 30 5 37 4
33 -7 -3 -9 -23 -15 -54 -17 -43 -2 -53 1 -74 23 -34 36 -33 104 0 140 29 31
81 34 110 5z m437 -2 c13 -13 23 -33 23 -50 0 -28 0 -28 -65 -28 -36 0 -65 -2
-65 -5 0 -2 5 -15 11 -29 13 -27 46 -40 84 -30 19 5 25 2 25 -10 0 -12 -10
-16 -44 -16 -24 0 -52 3 -61 6 -21 8 -45 56 -45 89 0 31 24 81 42 88 31 13 73
6 95 -15z m173 5 c0 -15 1 -15 18 0 23 21 62 22 62 2 0 -9 -9 -15 -24 -15 -35
0 -48 -22 -54 -95 -3 -46 -9 -65 -18 -65 -11 0 -14 21 -14 95 0 78 3 95 15 95
8 0 15 -7 15 -17z m314 1 c12 -11 16 -36 16 -95 0 -71 -10 -101 -23 -66 -4 10
-7 10 -18 0 -18 -18 -74 -16 -93 3 -38 37 -9 84 57 91 37 4 47 10 47 24 0 26
-33 41 -64 29 -17 -6 -27 -6 -32 2 -17 28 83 40 110 12z m376 -79 c0 -78 -3
-95 -15 -95 -12 0 -15 17 -15 95 0 78 3 95 15 95 12 0 15 -17 15 -95z m164 86
c4 -5 18 -5 34 1 40 15 81 3 92 -28 6 -14 10 -54 10 -90 0 -50 -3 -64 -15 -64
-12 0 -15 14 -15 68 0 79 -8 95 -46 95 -40 0 -54 -27 -54 -100 0 -49 -3 -63
-15 -63 -12 0 -15 17 -15 95 0 85 8 113 24 86z m416 -1 c0 -5 -4 -10 -10 -10
-5 0 -10 -15 -10 -33 0 -40 -23 -64 -65 -69 -49 -5 -38 -32 15 -38 59 -7 70
-15 70 -50 0 -39 -35 -62 -97 -62 -36 0 -52 5 -64 21 -18 22 -15 59 6 67 7 3
11 14 8 25 -3 10 0 25 6 33 9 10 8 16 -4 26 -20 16 -19 59 2 82 12 14 31 18
80 18 35 0 63 -4 63 -10z m1044 -12 c22 -31 23 -168 1 -168 -8 0 -15 5 -15 10
0 7 -6 7 -19 0 -26 -14 -74 -13 -89 2 -7 7 -12 24 -12 39 0 36 33 59 82 59 41
0 50 17 23 44 -10 10 -26 13 -50 9 -21 -3 -35 -2 -35 5 0 14 18 20 62 21 27 1
41 -5 52 -21z m571 -1 c36 -30 38 -107 4 -143 -29 -31 -90 -33 -118 -5 -40 40
-35 136 8 161 29 17 79 11 106 -13z m178 11 c4 -10 7 -10 18 0 24 22 75 15 98
-14 29 -37 29 -112 0 -143 -18 -19 -29 -22 -65 -18 l-43 4 -3 -45 c-2 -25 -9
-47 -15 -50 -10 -3 -13 29 -13 137 0 79 4 141 9 141 5 0 11 -6 14 -12z m497
-83 c0 -78 -3 -95 -15 -95 -12 0 -15 17 -15 95 0 78 3 95 15 95 12 0 15 -17
15 -95z m265 72 c36 -30 38 -107 4 -143 -29 -31 -90 -33 -118 -5 -40 40 -35
136 8 161 29 17 79 11 106 -13z m179 14 c4 -5 18 -5 34 1 40 15 81 3 92 -28 6
-14 10 -54 10 -90 0 -50 -3 -64 -15 -64 -12 0 -15 14 -15 68 0 79 -8 95 -46
95 -40 0 -54 -27 -54 -100 0 -49 -3 -63 -15 -63 -12 0 -15 17 -15 95 0 85 8
113 24 86z"/>
<path d="M1532 2377 c-36 -19 -42 -26 -38 -47 3 -14 10 -90 16 -170 14 -182
14 -184 46 -198 31 -15 30 -16 257 205 139 135 157 156 145 170 -31 38 -115
54 -174 33 -23 -8 -37 -6 -69 10 -52 26 -126 25 -183 -3z"/>
<path d="M1258 2351 c-67 -22 -112 -49 -153 -90 -35 -38 -53 -18 173 -189 160
-122 174 -131 197 -120 30 14 30 12 10 235 -10 105 -20 170 -28 175 -22 14
-141 7 -199 -11z"/>
<path d="M2028 2323 c-10 -2 -18 -7 -18 -11 0 -3 26 -84 57 -179 68 -203 79
-214 112 -103 12 38 29 99 38 134 17 64 17 66 -3 93 -38 53 -123 83 -186 66z"/>
<path d="M1791 2114 c-179 -175 -189 -187 -179 -210 l11 -24 214 0 c173 0 213
3 213 14 0 7 12 25 26 39 l26 26 -57 171 c-31 93 -59 170 -61 170 -2 0 -89
-84 -193 -186z"/>
<path d="M2271 2213 c2 -5 38 -75 79 -156 l75 -147 35 0 c20 0 46 -7 58 -16
21 -15 26 -14 72 16 28 18 50 37 50 44 0 6 -11 34 -24 61 -29 64 -100 129
-180 166 -64 30 -172 51 -165 32z"/>
<path d="M971 2190 c-47 -18 -71 -42 -135 -133 -22 -30 -50 -61 -64 -68 -46
-25 -130 -126 -151 -184 -21 -56 -27 -105 -13 -105 4 0 83 16 175 37 l169 37
15 39 c9 22 27 44 44 53 l29 15 0 164 c0 183 4 174 -69 145z"/>
<path d="M1070 2041 l0 -160 29 -15 c16 -9 31 -22 34 -31 8 -20 38 -19 176 8
111 21 115 23 122 51 5 17 7 31 6 31 -2 2 -335 252 -354 268 -10 7 -13 -24
-13 -152z"/>
<path d="M2246 2180 c-3 -8 -18 -61 -34 -118 l-30 -103 29 -29 c16 -15 29 -37
29 -48 0 -16 11 -22 61 -31 59 -10 61 -10 84 17 l23 27 -48 95 c-82 161 -108
206 -114 190z"/>
<path d="M2580 1671 l-81 -249 26 -27 25 -27 152 37 c84 21 159 42 166 48 16
13 15 89 -2 130 -7 18 -29 46 -47 61 -33 28 -34 31 -34 102 0 58 -4 78 -21
101 -21 28 -79 73 -95 73 -5 0 -45 -112 -89 -249z"/>
<path d="M2590 1882 c-32 -24 -35 -31 -32 -69 3 -35 -2 -48 -22 -67 -34 -34
-71 -42 -111 -23 l-32 15 -151 -124 c-83 -68 -153 -124 -156 -124 -21 0 12 33
142 141 128 106 147 125 144 148 -4 35 -9 38 -71 49 -54 10 -55 10 -86 -24
-24 -25 -41 -34 -64 -34 -17 0 -31 -5 -31 -11 0 -6 -16 -63 -36 -125 -24 -74
-42 -114 -51 -114 -8 0 -11 -5 -8 -10 5 -8 11 -8 20 0 14 12 31 -3 21 -19 -3
-5 3 -11 13 -14 11 -2 21 -15 23 -28 3 -20 16 -25 131 -52 l128 -30 27 26 c15
14 41 28 58 31 32 7 32 9 109 243 42 129 75 236 73 238 -2 2 -19 -9 -38 -23z"/>
<path d="M1616 1844 c-3 -9 -6 -19 -6 -24 0 -7 194 -186 315 -291 17 -15 26
-16 61 -7 l42 12 37 118 37 118 -26 31 c-14 17 -26 37 -26 45 0 12 -36 14
-214 14 -186 0 -215 -2 -220 -16z"/>
<path d="M1275 1816 c-94 -17 -121 -26 -123 -39 -2 -9 -10 -17 -18 -17 -8 0
-14 -5 -14 -11 0 -6 7 -8 15 -5 9 3 69 -21 138 -55 120 -61 122 -61 150 -45
34 19 54 20 60 4 2 -7 8 -9 13 -5 5 4 3 11 -4 15 -8 6 -9 23 -3 62 6 39 6 56
-2 59 -7 2 -23 17 -37 33 -28 32 -20 32 -175 4z"/>
<path d="M1125 1800 c3 -5 8 -10 11 -10 2 0 4 5 4 10 0 6 -5 10 -11 10 -5 0
-7 -4 -4 -10z"/>
<path d="M1553 1787 c-29 -10 -33 -15 -39 -65 -6 -51 -5 -55 25 -82 33 -31 40
-69 20 -114 -10 -22 -6 -31 45 -95 31 -39 60 -71 64 -71 16 0 238 62 244 68 3
4 8 21 10 38 3 29 -9 42 -165 182 -93 84 -169 151 -170 151 -1 -1 -16 -7 -34
-12z"/>
<path d="M970 1770 c0 -5 5 -10 10 -10 6 0 10 5 10 10 0 6 -4 10 -10 10 -5 0
-10 -4 -10 -10z"/>
<path d="M768 1710 c-97 -22 -181 -47 -202 -60 -73 -45 -105 -144 -72 -223 13
-33 72 -90 86 -85 23 9 401 389 395 398 -9 14 -20 13 -207 -30z"/>
<path d="M990 1730 c0 -5 5 -10 10 -10 6 0 10 5 10 10 0 6 -4 10 -10 10 -5 0
-10 -4 -10 -10z"/>
<path d="M1108 1714 c-17 -18 -50 -22 -89 -11 -24 6 -44 -11 -220 -183 l-194
-189 133 0 c72 -1 132 -5 132 -10 0 -5 -63 -10 -139 -13 -157 -4 -168 -9 -202
-83 -40 -86 -17 -196 54 -265 28 -27 37 -45 43 -85 11 -85 70 -171 133 -197
39 -16 113 -27 142 -21 l27 5 7 279 7 280 -38 34 c-35 30 -38 36 -26 54 7 13
8 21 2 21 -22 0 -8 40 22 65 26 22 39 26 66 21 45 -7 76 -34 61 -53 -7 -8 -8
-13 -1 -13 5 0 12 6 15 13 3 8 27 21 54 31 26 10 103 45 171 79 119 60 122 62
122 94 0 23 5 33 15 33 8 0 15 5 15 11 0 6 -8 8 -19 4 -13 -4 -61 15 -140 55
-66 33 -124 60 -129 60 -4 0 -15 -7 -24 -16z"/>
<path d="M1400 1529 c0 -5 5 -7 10 -4 6 3 10 8 10 11 0 2 -4 4 -10 4 -5 0 -10
-5 -10 -11z"/>
<path d="M1425 1510 c-3 -5 -1 -10 4 -10 6 0 11 5 11 10 0 6 -2 10 -4 10 -3 0
-8 -4 -11 -10z"/>
<path d="M1520 1510 c0 -5 5 -10 10 -10 6 0 10 5 10 10 0 6 -4 10 -10 10 -5 0
-10 -4 -10 -10z"/>
<path d="M1313 1469 c-68 -38 -73 -43 -73 -74 0 -43 9 -65 26 -65 8 0 14 -9
14 -21 0 -11 4 -18 10 -14 5 3 7 12 4 19 -3 8 22 51 55 97 34 45 61 86 61 91
0 16 -26 7 -97 -33z"/>
<path d="M1940 1490 c0 -5 5 -10 10 -10 6 0 10 5 10 10 0 6 -4 10 -10 10 -5 0
-10 -4 -10 -10z"/>
<path d="M1370 1400 c-39 -55 -58 -90 -54 -100 13 -29 16 -80 5 -80 -6 0 -11
-4 -11 -10 0 -5 7 -7 15 -4 26 10 163 -42 148 -57 -5 -5 -35 1 -75 17 l-66 27
-28 -22 c-65 -51 -154 -12 -154 69 0 30 6 47 25 65 13 14 29 25 35 25 5 0 10
20 10 45 0 25 -2 45 -4 45 -2 0 -39 -15 -82 -33 -75 -32 -79 -36 -86 -72 -9
-42 -33 -75 -55 -75 -25 0 -30 -43 -36 -299 l-6 -255 46 70 c25 38 50 71 54
74 5 3 109 14 231 24 123 10 226 23 229 29 4 5 10 38 14 73 4 44 12 67 23 73
9 5 13 13 9 17 -5 5 -12 2 -16 -5 -11 -16 -45 0 -61 29 -13 25 -13 70 1 70 6
0 9 7 6 15 -8 20 39 55 73 55 24 0 31 8 54 61 14 33 26 66 25 72 0 7 -24 41
-53 76 -52 64 -52 65 -104 65 l-52 1 -60 -85z"/>
<path d="M2080 1420 c0 -5 5 -10 11 -10 5 0 7 5 4 10 -3 6 -8 10 -11 10 -2 0
-4 -4 -4 -10z"/>
<path d="M2475 1410 c-3 -5 -1 -10 4 -10 6 0 11 5 11 10 0 6 -2 10 -4 10 -3 0
-8 -4 -11 -10z"/>
<path d="M2695 1339 c-93 -43 -171 -79 -173 -79 -2 0 0 5 3 10 8 13 4 13 -40
-6 -25 -10 -34 -18 -26 -23 7 -5 -3 -14 -29 -26 -31 -14 -40 -24 -40 -42 0
-41 -27 -81 -65 -93 -29 -9 -36 -18 -46 -52 -10 -38 -9 -42 18 -70 15 -16 57
-43 93 -61 59 -29 73 -32 155 -31 75 0 100 5 147 27 156 71 247 256 204 412
-9 33 -20 72 -24 87 l-7 26 -170 -79z"/>
<path d="M1806 1372 c-71 -18 -94 -27 -80 -32 11 -4 120 -36 244 -70 130 -36
230 -69 237 -78 7 -8 16 -12 20 -8 4 4 2 11 -5 15 -10 6 -5 15 18 35 34 28 54
32 94 17 36 -14 50 7 37 56 l-10 38 -132 29 c-124 28 -132 29 -141 12 -14 -25
-67 -45 -101 -39 -15 3 -36 16 -46 29 -22 28 -11 29 -135 -4z"/>
<path d="M2635 1367 c-67 -19 -81 -26 -83 -44 -2 -13 -1 -23 1 -23 2 0 46 20
98 45 105 49 102 54 -16 22z"/>
<path d="M2370 1350 c0 -5 5 -10 10 -10 6 0 10 5 10 10 0 6 -4 10 -10 10 -5 0
-10 -4 -10 -10z"/>
<path d="M2525 1350 c3 -5 10 -10 16 -10 5 0 9 5 9 10 0 6 -7 10 -16 10 -8 0
-12 -4 -9 -10z"/>
<path d="M1636 1266 l-28 -65 21 -27 c24 -30 27 -60 9 -67 -10 -4 -10 -8 1
-15 11 -8 9 -15 -12 -36 -14 -14 -33 -26 -41 -26 -22 0 -34 -29 -42 -101 l-6
-64 56 -53 c31 -29 82 -65 113 -80 51 -24 70 -27 153 -27 122 1 187 25 269
100 62 58 112 138 96 153 -6 5 -134 35 -285 67 -253 53 -302 66 -289 79 4 4
449 -88 576 -119 19 -4 23 0 29 40 3 26 13 49 23 54 9 5 12 13 8 17 -5 5 -12
2 -17 -6 -12 -20 -38 3 -60 55 l-17 40 -249 69 c-137 38 -256 71 -265 73 -11
3 -23 -13 -43 -61z"/>
<path d="M2395 1270 c3 -5 8 -10 11 -10 2 0 4 5 4 10 0 6 -5 10 -11 10 -5 0
-7 -4 -4 -10z"/>
<path d="M2379 1234 c-12 -15 -11 -16 11 -9 35 10 49 25 23 25 -11 0 -27 -7
-34 -16z"/>
<path d="M2352 1210 c12 -19 28 -27 28 -14 0 7 -27 34 -34 34 -4 0 -1 -9 6
-20z"/>
<path d="M1580 1190 c0 -5 5 -10 10 -10 6 0 10 5 10 10 0 6 -4 10 -10 10 -5 0
-10 -4 -10 -10z"/>
<path d="M1270 829 c-102 -9 -190 -18 -197 -18 -12 -1 -113 -142 -113 -159 0
-4 12 -17 28 -29 86 -64 164 -71 231 -23 23 17 49 47 58 68 31 72 38 84 48 87
74 19 97 30 131 59 31 28 35 35 19 34 -11 0 -103 -9 -205 -19z"/>
<path d="M4394 1761 c-42 -26 -58 -76 -57 -176 1 -133 37 -186 128 -187 85 -2
125 49 133 167 5 86 -11 149 -48 187 -23 23 -37 28 -77 28 -30 0 -60 -7 -79
-19z"/>
<path d="M6223 1805 c-30 -13 -34 -20 -47 -78 -9 -39 10 -103 37 -122 34 -24
94 -19 122 10 50 49 32 174 -27 194 -39 14 -46 13 -85 -4z"/>
<path d="M6170 1243 c-47 -17 -75 -75 -52 -109 39 -59 251 -56 306 5 26 28 18
82 -14 98 -25 13 -209 17 -240 6z"/>
<path d="M8240 1547 c-45 -15 -76 -73 -63 -115 18 -52 85 -66 151 -33 45 23
62 55 62 116 l0 45 -57 -1 c-32 0 -74 -5 -93 -12z"/>
<path d="M7488 852 c-25 -5 -42 -69 -29 -104 20 -53 85 -44 96 15 12 60 -18
100 -67 89z"/>
<path d="M3509 845 l-17 -45 39 0 38 0 -17 45 c-9 25 -19 45 -22 45 -3 0 -12
-20 -21 -45z"/>
<path d="M6587 858 c-22 -58 -22 -58 18 -58 19 0 35 1 35 3 0 1 -8 24 -18 50
l-19 49 -16 -44z"/>
<path d="M4281 844 c-36 -26 -26 -44 24 -44 29 0 45 4 45 13 -1 34 -39 52 -69
31z"/>
<path d="M4723 849 c-14 -5 -23 -17 -23 -29 0 -17 6 -20 46 -20 37 0 45 3 42
16 -5 26 -40 43 -65 33z"/>
<path d="M5196 764 c-19 -19 -20 -26 -4 -42 27 -27 78 -1 78 39 0 24 -51 27
-74 3z"/>
<path d="M6120 845 c-26 -32 13 -81 48 -59 34 22 22 74 -18 74 -10 0 -23 -7
-30 -15z"/>
<path d="M6104 675 c-11 -28 4 -45 39 -45 41 0 73 21 64 44 -9 22 -95 23 -103
1z"/>
<path d="M7198 769 c-33 -19 -17 -59 23 -59 14 0 49 39 49 55 0 17 -45 20 -72
4z"/>
<path d="M7776 848 c-46 -26 -39 -122 10 -134 38 -10 64 20 64 71 0 54 -35 85
-74 63z"/>
<path d="M8052 838 c-7 -7 -12 -31 -12 -53 0 -65 47 -97 83 -57 19 21 22 73 7
103 -12 22 -59 26 -78 7z"/>
<path d="M8716 848 c-46 -26 -39 -122 10 -134 38 -10 64 20 64 71 0 54 -35 85
-74 63z"/>
</g>
</svg>
