<?xml version="1.0" encoding="UTF-8" standalone="no" ?>
<!DOCTYPE svg PUBLIC "-//W3C//DTD SVG 1.1//EN" "http://www.w3.org/Graphics/SVG/1.1/DTD/svg11.dtd">
<svg xmlns="http://www.w3.org/2000/svg" xmlns:xlink="http://www.w3.org/1999/xlink" version="1.1" width="600" height="240" viewBox="425.44 226.64 600 240" xml:space="preserve">
<desc>Created with Fabric.js 5.2.4</desc>
<defs>
</defs>
<g transform="matrix(1 0 0 1 300 120)" id="6659ab01-49bc-4fd8-8ba5-802bfb70a402"  >
<rect style="stroke: none; stroke-width: 1; stroke-dasharray: none; stroke-linecap: butt; stroke-dashoffset: 0; stroke-linejoin: miter; stroke-miterlimit: 4; fill: rgb(255,255,255); fill-rule: nonzero; opacity: 1; visibility: hidden;" vector-effect="non-scaling-stroke"  x="-300" y="-120" rx="0" ry="0" width="600" height="240" />
</g>
<g transform="matrix(Infinity NaN NaN Infinity 0 0)" id="918ea75a-d8f2-4f00-90f8-7a15e2b57945"  >
</g>
<g transform="matrix(0.22 0 0 0.22 720 360)"  >
<rect style="stroke: none; stroke-width: 1; stroke-dasharray: none; stroke-linecap: butt; stroke-dashoffset: 0; stroke-linejoin: miter; stroke-miterlimit: 4; fill: rgb(255,255,255); fill-rule: nonzero; opacity: 1; visibility: hidden;" vector-effect="non-scaling-stroke"  x="-540" y="-540" rx="0" ry="0" width="1080" height="1080" />
</g>
<g transform="matrix(0.03 0 0 -0.03 689.19 354.79)"  >
<path style="stroke: none; stroke-width: 1; stroke-dasharray: none; stroke-linecap: butt; stroke-dashoffset: 0; stroke-linejoin: miter; stroke-miterlimit: 4; fill: rgb(255,255,255); fill-rule: nonzero; opacity: 1;" vector-effect="non-scaling-stroke"  transform=" translate(-530, -695)" d="M 140 695 L 140 460 L 530 460 L 920 460 L 920 695 L 920 930 L 530 930 L 140 930 L 140 695 z M 708 891 C 780 862 817 833 847 782 C 866 750 870 733 865 712 C 857 686 857 686 844 729 C 818 813 738 872 623 891 C 483 916 337 865 284 775 C 257 729 256 700 276 631 C 288 589 257 612 241 656 C 204 761 285 861 443 905 C 514 925 639 919 708 891 z M 606 871 C 622 866 652 859 672 855 C 716 848 770 806 770 780 C 770 770 775 760 782 758 C 788 756 794 746 796 736 C 798 720 797 720 781 734 C 759 754 730 755 730 735 C 730 727 726 720 720 720 C 709 720 706 760 718 760 C 722 760 731 764 739 769 C 771 790 690 850 630 850 C 599 850 570 814 570 777 L 570 745 L 503 743 C 454 742 431 745 418 756 C 406 768 397 769 383 762 C 373 756 356 752 346 753 C 335 754 325 749 322 741 C 319 732 323 730 339 735 C 353 739 370 736 385 726 C 402 715 433 710 489 710 C 574 710 600 698 600 659 C 600 633 591 635 581 664 C 572 685 564 688 489 693 C 424 697 404 695 392 684 C 384 675 364 670 347 672 C 320 675 315 680 308 713 C 301 747 304 756 332 791 C 349 813 375 833 389 836 C 403 839 425 847 438 853 C 454 861 463 861 471 853 C 490 834 471 819 436 825 C 413 830 398 826 380 812 L 355 792 L 383 785 C 400 780 416 782 423 789 C 439 805 486 802 505 784 C 523 765 550 772 550 796 C 550 804 540 820 528 830 C 509 845 508 850 519 864 C 534 882 563 884 606 871 z M 687 805 C 690 796 685 782 677 772 C 668 763 660 735 658 711 C 653 643 630 646 630 714 C 630 745 626 770 620 770 C 609 770 606 803 617 813 C 630 826 681 820 687 805 z M 504 674 C 513 671 520 660 519 651 C 519 641 517 640 513 648 C 507 663 478 664 462 648 C 456 642 447 640 443 644 C 438 648 444 658 454 666 C 476 682 482 683 504 674 z M 388 633 C 390 626 385 620 376 620 C 367 620 360 615 360 608 C 360 599 357 599 349 607 C 342 614 340 626 344 635 C 351 653 381 652 388 633 z" stroke-linecap="round" />
</g>
<g transform="matrix(0.03 0 0 -0.03 690.35 350.44)"  >
<path style="stroke: none; stroke-width: 1; stroke-dasharray: none; stroke-linecap: butt; stroke-dashoffset: 0; stroke-linejoin: miter; stroke-miterlimit: 4; fill: rgb(255,255,255); fill-rule: nonzero; opacity: 1;" vector-effect="non-scaling-stroke"  transform=" translate(-559.86, -847.42)" d="M 540 852 C 540 838 551 831 566 837 C 587 845 583 860 560 860 C 549 860 540 856 540 852 z" stroke-linecap="round" />
</g>
<g transform="matrix(0.03 0 0 -0.03 687.31 350.61)"  >
<path style="stroke: none; stroke-width: 1; stroke-dasharray: none; stroke-linecap: butt; stroke-dashoffset: 0; stroke-linejoin: miter; stroke-miterlimit: 4; fill: rgb(255,255,255); fill-rule: nonzero; opacity: 1;" vector-effect="non-scaling-stroke"  transform=" translate(-456.9, -841.81)" d="M 445 840 C 449 834 456 832 461 835 C 475 844 472 850 454 850 C 446 850 442 845 445 840 z" stroke-linecap="round" />
</g>
<g transform="matrix(0.03 0 0 -0.03 687.37 352.76)"  >
<path style="stroke: none; stroke-width: 1; stroke-dasharray: none; stroke-linecap: butt; stroke-dashoffset: 0; stroke-linejoin: miter; stroke-miterlimit: 4; fill: rgb(255,255,255); fill-rule: nonzero; opacity: 1;" vector-effect="non-scaling-stroke"  transform=" translate(-459.19, -769.08)" d="M 447 784 C 433 769 441 750 461 750 C 475 750 480 755 478 767 C 475 785 458 794 447 784 z" stroke-linecap="round" />
</g>
<g transform="matrix(0.03 0 0 -0.03 684.26 354.8)"  >
<path style="stroke: none; stroke-width: 1; stroke-dasharray: none; stroke-linecap: butt; stroke-dashoffset: 0; stroke-linejoin: miter; stroke-miterlimit: 4; fill: rgb(255,255,255); fill-rule: nonzero; opacity: 1;" vector-effect="non-scaling-stroke"  transform=" translate(-354.15, -700.09)" d="M 335 709 C 327 697 349 678 365 683 C 371 685 375 693 375 701 C 375 718 344 725 335 709 z" stroke-linecap="round" />
</g>
<g transform="matrix(0.03 0 0 -0.03 693 352.02)"  >
<path style="stroke: none; stroke-width: 1; stroke-dasharray: none; stroke-linecap: butt; stroke-dashoffset: 0; stroke-linejoin: miter; stroke-miterlimit: 4; fill: rgb(255,255,255); fill-rule: nonzero; opacity: 1;" vector-effect="non-scaling-stroke"  transform=" translate(-649.23, -794.01)" d="M 637 804 C 624 791 630 780 651 780 C 662 780 670 785 668 792 C 663 806 646 813 637 804 z" stroke-linecap="round" />
</g>
<g transform="matrix(0.03 0 0 -0.03 760.36 348.51)"  >
<path style="stroke: rgb(43,212,195); stroke-width: 0; stroke-dasharray: none; stroke-linecap: butt; stroke-dashoffset: 0; stroke-linejoin: miter; stroke-miterlimit: 4; fill: rgb(43,212,195); fill-rule: nonzero; opacity: 1;" vector-effect="non-scaling-stroke"  transform=" translate(-2940, -895)" d="M 2900 895 C 2900 861 2901 860 2940 860 C 2979 860 2980 861 2980 895 C 2980 929 2979 930 2940 930 C 2901 930 2900 929 2900 895 z" stroke-linecap="round" />
</g>
<g transform="matrix(0.03 0 0 -0.03 709.27 354.4)"  >
<path style="stroke: none; stroke-width: 1; stroke-dasharray: none; stroke-linecap: butt; stroke-dashoffset: 0; stroke-linejoin: miter; stroke-miterlimit: 4; fill: rgb(255,255,255); fill-rule: nonzero; opacity: 1;" vector-effect="non-scaling-stroke"  transform=" translate(-1201.37, -709.73)" d="M 1162 883 C 1149 880 1124 863 1106 845 C 1047 786 1037 667 1084 598 C 1143 512 1279 509 1330 592 C 1356 635 1356 636 1320 649 C 1292 658 1288 657 1280 635 C 1262 586 1194 575 1155 614 C 1126 643 1113 715 1130 764 C 1153 834 1221 852 1269 801 C 1290 779 1302 773 1323 777 C 1355 783 1356 786 1330 828 C 1299 878 1240 898 1162 883 z" stroke-linecap="round" />
</g>
<g transform="matrix(0.03 0 0 -0.03 742.64 350.35)"  >
<path style="stroke: none; stroke-width: 1; stroke-dasharray: none; stroke-linecap: butt; stroke-dashoffset: 0; stroke-linejoin: miter; stroke-miterlimit: 4; fill: rgb(255,255,255); fill-rule: nonzero; opacity: 1;" vector-effect="non-scaling-stroke"  transform=" translate(-2325, -850)" d="M 2290 850 C 2290 822 2293 820 2325 820 C 2357 820 2360 822 2360 850 C 2360 878 2357 880 2325 880 C 2293 880 2290 878 2290 850 z" stroke-linecap="round" />
</g>
<g transform="matrix(0.03 0 0 -0.03 747.18 354.56)"  >
<path style="stroke: none; stroke-width: 1; stroke-dasharray: none; stroke-linecap: butt; stroke-dashoffset: 0; stroke-linejoin: miter; stroke-miterlimit: 4; fill: rgb(255,255,255); fill-rule: nonzero; opacity: 1;" vector-effect="non-scaling-stroke"  transform=" translate(-2479.25, -704.39)" d="M 2463 865 C 2449 855 2440 838 2440 823 C 2440 807 2433 796 2420 793 C 2396 787 2392 740 2415 740 C 2427 740 2430 722 2430 635 L 2430 530 L 2465 530 L 2500 530 L 2500 635 L 2500 740 L 2525 740 C 2545 740 2550 745 2550 765 C 2550 785 2545 790 2524 790 C 2488 790 2495 824 2533 828 C 2556 831 2561 836 2558 853 C 2554 881 2496 888 2463 865 z" stroke-linecap="round" />
</g>
<g transform="matrix(0.03 0 0 -0.03 753.25 354.93)"  >
<path style="stroke: rgb(42,218,200); stroke-width: 0; stroke-dasharray: none; stroke-linecap: butt; stroke-dashoffset: 0; stroke-linejoin: miter; stroke-miterlimit: 4; fill: rgb(43,212,195); fill-rule: nonzero; opacity: 1;" vector-effect="non-scaling-stroke"  transform=" translate(-2702.34, -675.42)" d="M 2635 816 C 2611 806 2580 766 2580 746 C 2580 744 2594 740 2612 736 C 2636 731 2646 734 2657 750 C 2683 787 2762 766 2747 727 C 2744 719 2714 707 2680 701 C 2604 686 2570 657 2570 607 C 2570 571 2596 536 2631 525 C 2659 516 2715 527 2730 545 C 2746 564 2760 564 2760 545 C 2760 534 2771 530 2800 530 C 2838 530 2839 531 2830 556 C 2824 570 2820 624 2820 676 C 2820 729 2816 780 2810 790 C 2790 827 2694 842 2635 816 z M 2750 635 C 2750 606 2712 577 2678 582 C 2661 584 2655 592 2655 610 C 2655 630 2663 638 2690 647 C 2741 664 2750 663 2750 635 z" stroke-linecap="round" />
</g>
<g transform="matrix(0.03 0 0 -0.03 760.36 354.95)"  >
<path style="stroke: rgb(43,212,195); stroke-width: 0; stroke-dasharray: none; stroke-linecap: butt; stroke-dashoffset: 0; stroke-linejoin: miter; stroke-miterlimit: 4; fill: rgb(43,212,195); fill-rule: nonzero; opacity: 1;" vector-effect="non-scaling-stroke"  transform=" translate(-2940, -675)" d="M 2900 675 L 2900 530 L 2940 530 L 2980 530 L 2980 675 L 2980 820 L 2940 820 L 2900 820 L 2900 675 z" stroke-linecap="round" />
</g>
<g transform="matrix(0.03 0 0 -0.03 718.95 355.73)"  >
<path style="stroke: none; stroke-width: 1; stroke-dasharray: none; stroke-linecap: butt; stroke-dashoffset: 0; stroke-linejoin: miter; stroke-miterlimit: 4; fill: rgb(255,255,255); fill-rule: nonzero; opacity: 1;" vector-effect="non-scaling-stroke"  transform=" translate(-1527.5, -665.66)" d="M 1475 790 C 1464 786 1444 770 1430 755 C 1409 732 1405 719 1405 664 C 1405 606 1408 598 1436 569 C 1517 488 1650 548 1650 665 C 1650 759 1558 825 1475 790 z M 1566 729 C 1608 682 1580 580 1524 580 C 1494 580 1460 625 1460 665 C 1460 705 1494 750 1524 750 C 1537 750 1555 741 1566 729 z" stroke-linecap="round" />
</g>
<g transform="matrix(0.03 0 0 -0.03 727.32 357.21)"  >
<path style="stroke: none; stroke-width: 1; stroke-dasharray: none; stroke-linecap: butt; stroke-dashoffset: 0; stroke-linejoin: miter; stroke-miterlimit: 4; fill: rgb(255,255,255); fill-rule: nonzero; opacity: 1;" vector-effect="non-scaling-stroke"  transform=" translate(-1810, -614.78)" d="M 1749 785 C 1721 770 1690 707 1690 665 C 1690 621 1721 560 1751 545 C 1787 526 1804 526 1840 545 C 1870 560 1870 560 1870 532 C 1870 517 1865 499 1858 492 C 1844 478 1783 476 1778 489 C 1777 493 1758 500 1738 504 C 1707 510 1700 508 1700 495 C 1700 429 1856 406 1908 465 C 1929 490 1930 500 1930 641 L 1930 790 L 1900 790 C 1884 790 1870 785 1870 780 C 1870 774 1857 776 1840 785 C 1804 803 1783 803 1749 785 z M 1854 728 C 1863 716 1870 687 1870 665 C 1870 593 1822 557 1778 597 C 1754 619 1753 706 1777 732 C 1799 757 1836 755 1854 728 z" stroke-linecap="round" />
</g>
<g transform="matrix(0.03 0 0 -0.03 736.4 355.77)"  >
<path style="stroke: none; stroke-width: 1; stroke-dasharray: none; stroke-linecap: butt; stroke-dashoffset: 0; stroke-linejoin: miter; stroke-miterlimit: 4; fill: rgb(255,255,255); fill-rule: nonzero; opacity: 1;" vector-effect="non-scaling-stroke"  transform=" translate(-2116.5, -664.54)" d="M 2110 793 C 2102 790 2087 781 2078 772 C 2062 758 2060 759 2060 773 C 2060 785 2051 790 2030 790 L 2000 790 L 2000 660 L 2000 530 L 2029 530 L 2058 530 L 2062 624 C 2066 724 2077 750 2114 750 C 2153 750 2160 732 2160 628 L 2160 530 L 2196 530 L 2233 530 L 2228 642 C 2224 748 2222 754 2196 777 C 2170 799 2142 805 2110 793 z" stroke-linecap="round" />
</g>
<g transform="matrix(0.03 0 0 -0.03 742.64 355.9)"  >
<path style="stroke: none; stroke-width: 1; stroke-dasharray: none; stroke-linecap: butt; stroke-dashoffset: 0; stroke-linejoin: miter; stroke-miterlimit: 4; fill: rgb(255,255,255); fill-rule: nonzero; opacity: 1;" vector-effect="non-scaling-stroke"  transform=" translate(-2325, -660)" d="M 2290 660 L 2290 530 L 2325 530 L 2360 530 L 2360 660 L 2360 790 L 2325 790 L 2290 790 L 2290 660 z" stroke-linecap="round" />
</g>
<g transform="matrix(0.03 0 0 -0.03 718.45 364.66)"  >
<path style="stroke: none; stroke-width: 1; stroke-dasharray: none; stroke-linecap: butt; stroke-dashoffset: 0; stroke-linejoin: miter; stroke-miterlimit: 4; fill: rgb(255,255,255); fill-rule: nonzero; opacity: 1;" vector-effect="non-scaling-stroke"  transform=" translate(-608.03, -216.19)" d="M 601 219 C 594 185 591 156 594 153 C 597 150 601 158 604 171 C 623 253 627 280 620 280 C 616 280 607 253 601 219 z" stroke-linecap="round" />
</g>
<g transform="matrix(0.03 0 0 -0.03 729.18 363.1)"  >
<path style="stroke: none; stroke-width: 1; stroke-dasharray: none; stroke-linecap: butt; stroke-dashoffset: 0; stroke-linejoin: miter; stroke-miterlimit: 4; fill: rgb(255,255,255); fill-rule: nonzero; opacity: 1;" vector-effect="non-scaling-stroke"  transform=" translate(-970, -270)" d="M 960 270 C 960 265 965 260 970 260 C 976 260 980 265 980 270 C 980 276 976 280 970 280 C 965 280 960 276 960 270 z" stroke-linecap="round" />
</g>
<g transform="matrix(0.03 0 0 -0.03 746.81 364.7)"  >
<path style="stroke: none; stroke-width: 1; stroke-dasharray: none; stroke-linecap: butt; stroke-dashoffset: 0; stroke-linejoin: miter; stroke-miterlimit: 4; fill: rgb(255,255,255); fill-rule: nonzero; opacity: 1;" vector-effect="non-scaling-stroke"  transform=" translate(-1565.9, -214.85)" d="M 1597 258 C 1592 238 1585 233 1571 237 C 1558 240 1546 234 1535 216 C 1516 187 1523 150 1548 151 C 1559 151 1560 154 1553 157 C 1529 166 1541 230 1565 230 C 1586 230 1592 213 1580 189 C 1572 175 1571 165 1578 158 C 1585 151 1592 167 1600 204 C 1612 261 1609 307 1597 258 z" stroke-linecap="round" />
</g>
<g transform="matrix(0.03 0 0 -0.03 756.73 363.1)"  >
<path style="stroke: none; stroke-width: 1; stroke-dasharray: none; stroke-linecap: butt; stroke-dashoffset: 0; stroke-linejoin: miter; stroke-miterlimit: 4; fill: rgb(255,255,255); fill-rule: nonzero; opacity: 1;" vector-effect="non-scaling-stroke"  transform=" translate(-1900, -270)" d="M 1890 270 C 1890 265 1895 260 1900 260 C 1906 260 1910 265 1910 270 C 1910 276 1906 280 1900 280 C 1895 280 1890 276 1890 270 z" stroke-linecap="round" />
</g>
<g transform="matrix(0.03 0 0 -0.03 708.72 364.84)"  >
<path style="stroke: none; stroke-width: 1; stroke-dasharray: none; stroke-linecap: butt; stroke-dashoffset: 0; stroke-linejoin: miter; stroke-miterlimit: 4; fill: rgb(255,255,255); fill-rule: nonzero; opacity: 1;" vector-effect="non-scaling-stroke"  transform=" translate(-280.3, -210)" d="M 260 214 C 242 184 230 156 234 153 C 237 150 242 155 246 164 C 254 185 310 186 310 165 C 310 157 315 150 321 150 C 327 150 329 158 326 168 C 324 177 318 204 315 228 C 311 251 304 270 300 270 C 295 270 277 245 260 214 z M 304 218 C 310 193 308 190 286 190 C 261 190 261 190 278 219 C 287 235 295 248 296 247 C 297 246 300 233 304 218 z" stroke-linecap="round" />
</g>
<g transform="matrix(0.03 0 0 -0.03 737.75 364.84)"  >
<path style="stroke: none; stroke-width: 1; stroke-dasharray: none; stroke-linecap: butt; stroke-dashoffset: 0; stroke-linejoin: miter; stroke-miterlimit: 4; fill: rgb(255,255,255); fill-rule: nonzero; opacity: 1;" vector-effect="non-scaling-stroke"  transform=" translate(-1260.3, -210)" d="M 1240 214 C 1222 184 1210 156 1214 153 C 1217 150 1222 155 1226 164 C 1234 185 1290 186 1290 165 C 1290 157 1295 150 1301 150 C 1307 150 1309 158 1306 168 C 1304 177 1298 204 1295 228 C 1291 251 1284 270 1280 270 C 1275 270 1257 245 1240 214 z M 1284 218 C 1290 193 1288 190 1266 190 C 1241 190 1241 190 1258 219 C 1267 235 1275 248 1276 247 C 1277 246 1280 233 1284 218 z" stroke-linecap="round" />
</g>
<g transform="matrix(0.03 0 0 -0.03 740.31 364.74)"  >
<path style="stroke: none; stroke-width: 1; stroke-dasharray: none; stroke-linecap: butt; stroke-dashoffset: 0; stroke-linejoin: miter; stroke-miterlimit: 4; fill: rgb(255,255,255); fill-rule: nonzero; opacity: 1;" vector-effect="non-scaling-stroke"  transform=" translate(-1345.74, -213.8)" d="M 1347 256 C 1344 249 1339 221 1335 194 C 1327 130 1345 156 1355 223 C 1362 268 1358 285 1347 256 z" stroke-linecap="round" />
</g>
<g transform="matrix(0.03 0 0 -0.03 743.5 364.9)"  >
<path style="stroke: none; stroke-width: 1; stroke-dasharray: none; stroke-linecap: butt; stroke-dashoffset: 0; stroke-linejoin: miter; stroke-miterlimit: 4; fill: rgb(255,255,255); fill-rule: nonzero; opacity: 1;" vector-effect="non-scaling-stroke"  transform=" translate(-1454.27, -208.1)" d="M 1437 213 C 1405 158 1396 124 1424 163 C 1440 184 1490 186 1490 165 C 1490 157 1494 150 1498 150 C 1503 150 1502 177 1497 210 C 1492 243 1484 270 1479 270 C 1475 270 1456 244 1437 213 z M 1480 220 C 1480 197 1476 190 1460 190 C 1440 190 1440 191 1455 220 C 1464 237 1473 250 1475 250 C 1478 250 1480 237 1480 220 z" stroke-linecap="round" />
</g>
<g transform="matrix(0.03 0 0 -0.03 727.86 365.01)"  >
<path style="stroke: none; stroke-width: 1; stroke-dasharray: none; stroke-linecap: butt; stroke-dashoffset: 0; stroke-linejoin: miter; stroke-miterlimit: 4; fill: rgb(255,255,255); fill-rule: nonzero; opacity: 1;" vector-effect="non-scaling-stroke"  transform=" translate(-926.27, -204.68)" d="M 892 245 C 885 237 883 230 887 230 C 892 230 894 212 892 190 C 888 156 891 150 906 150 C 921 150 922 152 911 159 C 890 173 906 230 932 230 C 951 230 952 226 946 188 C 937 135 955 149 964 203 C 971 239 970 240 940 240 C 922 240 911 244 915 250 C 924 265 907 261 892 245 z" stroke-linecap="round" />
</g>
<g transform="matrix(0.03 0 0 -0.03 755.43 365.03)"  >
<path style="stroke: none; stroke-width: 1; stroke-dasharray: none; stroke-linecap: butt; stroke-dashoffset: 0; stroke-linejoin: miter; stroke-miterlimit: 4; fill: rgb(255,255,255); fill-rule: nonzero; opacity: 1;" vector-effect="non-scaling-stroke"  transform=" translate(-1856.87, -203.93)" d="M 1822 245 C 1815 237 1813 230 1819 230 C 1824 230 1826 212 1823 190 C 1818 156 1820 150 1836 150 C 1849 150 1851 153 1842 158 C 1834 164 1832 177 1836 198 C 1841 223 1848 230 1865 230 C 1886 230 1887 227 1879 193 C 1875 172 1873 154 1876 151 C 1883 143 1888 154 1895 198 C 1901 238 1901 240 1876 240 C 1862 240 1850 245 1850 250 C 1850 264 1837 262 1822 245 z" stroke-linecap="round" />
</g>
<g transform="matrix(0.03 0 0 -0.03 711.78 365.25)"  >
<path style="stroke: none; stroke-width: 1; stroke-dasharray: none; stroke-linecap: butt; stroke-dashoffset: 0; stroke-linejoin: miter; stroke-miterlimit: 4; fill: rgb(255,255,255); fill-rule: nonzero; opacity: 1;" vector-effect="non-scaling-stroke"  transform=" translate(-383.37, -196.7)" d="M 361 226 C 342 203 351 155 375 154 C 390 153 391 154 378 157 C 356 162 354 203 375 220 C 383 227 397 230 405 226 C 414 223 418 224 415 230 C 406 245 374 242 361 226 z" stroke-linecap="round" />
</g>
<g transform="matrix(0.03 0 0 -0.03 713.92 365.28)"  >
<path style="stroke: none; stroke-width: 1; stroke-dasharray: none; stroke-linecap: butt; stroke-dashoffset: 0; stroke-linejoin: miter; stroke-miterlimit: 4; fill: rgb(255,255,255); fill-rule: nonzero; opacity: 1;" vector-effect="non-scaling-stroke"  transform=" translate(-455.81, -195.77)" d="M 434 215 C 426 202 420 183 422 173 C 426 152 457 143 473 159 C 480 166 476 167 461 163 C 441 158 439 160 442 191 C 444 219 449 225 468 224 C 480 224 490 227 490 232 C 490 250 449 238 434 215 z" stroke-linecap="round" />
</g>
<g transform="matrix(0.03 0 0 -0.03 716.36 365.29)"  >
<path style="stroke: none; stroke-width: 1; stroke-dasharray: none; stroke-linecap: butt; stroke-dashoffset: 0; stroke-linejoin: miter; stroke-miterlimit: 4; fill: rgb(255,255,255); fill-rule: nonzero; opacity: 1;" vector-effect="non-scaling-stroke"  transform=" translate(-538.03, -195.51)" d="M 515 224 C 506 215 500 196 502 181 C 504 161 511 154 533 152 C 548 150 560 153 560 158 C 560 163 550 166 539 166 C 527 165 515 171 513 178 C 510 185 517 190 532 190 C 561 190 580 207 573 226 C 566 245 535 244 515 224 z M 560 220 C 560 208 532 195 524 203 C 515 212 530 230 546 230 C 554 230 560 225 560 220 z" stroke-linecap="round" />
</g>
<g transform="matrix(0.03 0 0 -0.03 720.24 365.26)"  >
<path style="stroke: none; stroke-width: 1; stroke-dasharray: none; stroke-linecap: butt; stroke-dashoffset: 0; stroke-linejoin: miter; stroke-miterlimit: 4; fill: rgb(255,255,255); fill-rule: nonzero; opacity: 1;" vector-effect="non-scaling-stroke"  transform=" translate(-669.02, -196.33)" d="M 644 215 C 621 180 629 155 665 153 C 685 152 688 153 673 157 C 645 162 642 190 669 190 C 691 190 714 215 705 230 C 694 248 661 241 644 215 z M 690 215 C 690 207 681 200 670 200 C 650 200 644 211 657 223 C 669 236 690 230 690 215 z" stroke-linecap="round" />
</g>
<g transform="matrix(0.03 0 0 -0.03 722.62 365.31)"  >
<path style="stroke: none; stroke-width: 1; stroke-dasharray: none; stroke-linecap: butt; stroke-dashoffset: 0; stroke-linejoin: miter; stroke-miterlimit: 4; fill: rgb(255,255,255); fill-rule: nonzero; opacity: 1;" vector-effect="non-scaling-stroke"  transform=" translate(-748.92, -194.81)" d="M 726 197 C 718 149 727 133 736 179 C 740 196 751 217 762 224 C 780 237 780 238 757 238 C 736 238 731 231 726 197 z" stroke-linecap="round" />
</g>
<g transform="matrix(0.03 0 0 -0.03 724.82 365.32)"  >
<path style="stroke: none; stroke-width: 1; stroke-dasharray: none; stroke-linecap: butt; stroke-dashoffset: 0; stroke-linejoin: miter; stroke-miterlimit: 4; fill: rgb(255,255,255); fill-rule: nonzero; opacity: 1;" vector-effect="non-scaling-stroke"  transform=" translate(-823.76, -194.49)" d="M 794 215 C 776 187 784 150 808 151 C 819 151 820 154 813 157 C 789 166 801 230 825 230 C 846 230 852 213 840 189 C 831 174 831 165 839 157 C 845 151 850 150 850 156 C 850 161 854 181 859 201 C 867 236 866 237 838 238 C 819 238 805 231 794 215 z" stroke-linecap="round" />
</g>
<g transform="matrix(0.03 0 0 -0.03 730.7 365.32)"  >
<path style="stroke: none; stroke-width: 1; stroke-dasharray: none; stroke-linecap: butt; stroke-dashoffset: 0; stroke-linejoin: miter; stroke-miterlimit: 4; fill: rgb(255,255,255); fill-rule: nonzero; opacity: 1;" vector-effect="non-scaling-stroke"  transform=" translate(-1022.09, -194.28)" d="M 996 220 C 982 169 981 150 990 150 C 995 150 1000 159 1000 171 C 1000 200 1018 230 1035 230 C 1047 230 1049 221 1044 188 C 1040 156 1041 149 1049 160 C 1055 168 1060 190 1060 208 C 1060 238 1058 240 1030 238 C 1013 237 998 229 996 220 z" stroke-linecap="round" />
</g>
<g transform="matrix(0.03 0 0 -0.03 733.59 365.76)"  >
<path style="stroke: none; stroke-width: 1; stroke-dasharray: none; stroke-linecap: butt; stroke-dashoffset: 0; stroke-linejoin: miter; stroke-miterlimit: 4; fill: rgb(255,255,255); fill-rule: nonzero; opacity: 1;" vector-effect="non-scaling-stroke"  transform=" translate(-1119.59, -179.18)" d="M 1095 224 C 1086 215 1080 196 1082 181 C 1084 161 1090 155 1108 156 C 1120 156 1129 152 1127 146 C 1125 140 1114 135 1102 136 C 1090 136 1083 133 1086 128 C 1095 114 1129 120 1138 138 C 1144 147 1151 173 1154 195 C 1161 233 1159 236 1136 238 C 1122 239 1104 232 1095 224 z M 1140 206 C 1140 178 1114 152 1099 167 C 1085 181 1105 230 1125 230 C 1134 230 1140 221 1140 206 z" stroke-linecap="round" />
</g>
<g transform="matrix(0.03 0 0 -0.03 749.6 365.3)"  >
<path style="stroke: none; stroke-width: 1; stroke-dasharray: none; stroke-linecap: butt; stroke-dashoffset: 0; stroke-linejoin: miter; stroke-miterlimit: 4; fill: rgb(255,255,255); fill-rule: nonzero; opacity: 1;" vector-effect="non-scaling-stroke"  transform=" translate(-1659.87, -195.18)" d="M 1636 224 C 1612 201 1619 156 1646 152 C 1675 148 1702 177 1698 209 C 1694 241 1661 249 1636 224 z M 1686 216 C 1693 197 1673 160 1655 160 C 1634 160 1629 175 1640 204 C 1650 232 1677 239 1686 216 z" stroke-linecap="round" />
</g>
<g transform="matrix(0.03 0 0 -0.03 752.4 365.75)"  >
<path style="stroke: none; stroke-width: 1; stroke-dasharray: none; stroke-linecap: butt; stroke-dashoffset: 0; stroke-linejoin: miter; stroke-miterlimit: 4; fill: rgb(255,255,255); fill-rule: nonzero; opacity: 1;" vector-effect="non-scaling-stroke"  transform=" translate(-1754.51, -179.54)" d="M 1720 184 C 1709 130 1712 98 1724 138 C 1729 151 1737 156 1749 153 C 1762 150 1774 157 1785 174 C 1804 203 1797 240 1772 239 C 1761 239 1760 236 1768 233 C 1791 224 1779 160 1755 160 C 1734 160 1729 176 1740 204 C 1745 218 1745 232 1740 235 C 1735 238 1726 215 1720 184 z" stroke-linecap="round" />
</g>
<g transform="matrix(0.03 0 0 -0.03 758.36 365.33)"  >
<path style="stroke: none; stroke-width: 1; stroke-dasharray: none; stroke-linecap: butt; stroke-dashoffset: 0; stroke-linejoin: miter; stroke-miterlimit: 4; fill: rgb(255,255,255); fill-rule: nonzero; opacity: 1;" vector-effect="non-scaling-stroke"  transform=" translate(-1955.85, -194.11)" d="M 1933 228 C 1903 190 1912 150 1951 150 C 1977 150 2007 197 1993 219 C 1980 240 1946 245 1933 228 z M 1980 207 C 1980 182 1963 160 1943 160 C 1927 160 1926 202 1942 218 C 1961 237 1980 232 1980 207 z" stroke-linecap="round" />
</g>
<g transform="matrix(0.03 0 0 -0.03 761.16 365.31)"  >
<path style="stroke: none; stroke-width: 1; stroke-dasharray: none; stroke-linecap: butt; stroke-dashoffset: 0; stroke-linejoin: miter; stroke-miterlimit: 4; fill: rgb(255,255,255); fill-rule: nonzero; opacity: 1;" vector-effect="non-scaling-stroke"  transform=" translate(-2050.23, -194.56)" d="M 2016 197 C 2008 150 2016 135 2026 176 C 2041 239 2075 251 2067 190 C 2061 141 2075 137 2084 185 C 2093 230 2087 239 2051 238 C 2025 237 2021 233 2016 197 z" stroke-linecap="round" />
</g>
<g transform="matrix(NaN NaN NaN NaN 0 0)"  >
<g style=""   >
</g>
</g>
<g transform="matrix(NaN NaN NaN NaN 0 0)"  >
<g style=""   >
</g>
</g>
<g transform="matrix(NaN NaN NaN NaN 0 0)"  >
<g style=""   >
</g>
</g>
<g transform="matrix(NaN NaN NaN NaN 0 0)"  >
<g style=""   >
</g>
</g>
<g transform="matrix(NaN NaN NaN NaN 0 0)"  >
<g style=""   >
</g>
</g>
<g transform="matrix(NaN NaN NaN NaN 0 0)"  >
<g style=""   >
</g>
</g>
<g transform="matrix(NaN NaN NaN NaN 0 0)"  >
<g style=""   >
</g>
</g>
<g transform="matrix(NaN NaN NaN NaN 0 0)"  >
<g style=""   >
</g>
</g>
</svg>